<?xml version="1.0" encoding="utf-8"?>
<!-- Generator: Adobe Illustrator 16.0.3, SVG Export Plug-In . SVG Version: 6.00 Build 0)  -->
<!DOCTYPE svg PUBLIC "-//W3C//DTD SVG 1.0//EN" "http://www.w3.org/TR/2001/REC-SVG-20010904/DTD/svg10.dtd">
<svg version="1.0" id="Capa_1" xmlns="http://www.w3.org/2000/svg" xmlns:xlink="http://www.w3.org/1999/xlink" x="0px" y="0px"
	 width="595.281px" height="584px" viewBox="0 128.445 595.281 584" enable-background="new 0 128.445 595.281 584"
	 xml:space="preserve">
<g>
	<g>
		<path fill="#FFFFFF" d="M342.583,138.436c-2.941-2.39-6.816-3.304-10.516-2.479L9.625,210.366
			C3.95,211.67-0.055,216.747,0,222.569v421.657c0.002,6.119,4.468,11.324,10.516,12.254l322.442,49.607
			c6.771,1.039,13.104-3.604,14.143-10.373c0.096-0.621,0.145-1.25,0.145-1.879V148.159
			C347.257,144.377,345.541,140.797,342.583,138.436z"/>
		<path fill="#FFFFFF" d="M582.88,656.626H334.845c-6.85,0-12.402-5.553-12.402-12.4c0-6.85,5.553-12.402,12.402-12.402h235.633
			V210.167H334.845c-6.85,0-12.402-5.553-12.402-12.402s5.553-12.401,12.402-12.401h248.033c6.85,0,12.402,5.553,12.402,12.402
			v446.46C595.281,651.076,589.728,656.626,582.88,656.626z"/>
	</g>
	<g>
		<path fill="#F09200" d="M235.632,532.611c-4.276,0-8.25-2.203-10.517-5.828L101.099,328.355
			c-3.812-5.69-2.289-13.394,3.401-17.206c5.69-3.812,13.394-2.289,17.206,3.401c0.15,0.223,0.292,0.451,0.427,0.684
			l124.017,198.428c3.616,5.816,1.833,13.463-3.984,17.08C240.204,531.96,237.941,532.607,235.632,532.611z"/>
		<path fill="#F09200" d="M111.615,532.611c-6.85-0.014-12.391-5.576-12.376-12.426c0.004-2.316,0.658-4.584,1.884-6.549
			L225.14,315.209c3.435-5.926,11.023-7.945,16.948-4.511c5.926,3.435,7.946,11.023,4.511,16.948
			c-0.135,0.232-0.277,0.46-0.427,0.684L122.157,526.757C119.892,530.4,115.905,532.615,111.615,532.611z"/>
	</g>
	<g>
		<path fill="#FFFFFF" d="M434.06,656.626c-6.85,0-12.402-5.553-12.402-12.4V197.765c0-6.849,5.553-12.402,12.402-12.402
			c6.848,0,12.4,5.553,12.4,12.402v446.461C446.46,651.076,440.908,656.626,434.06,656.626z"/>
		<path fill="#FFFFFF" d="M582.88,582.216H334.845c-6.85,0-12.402-5.553-12.402-12.4c0-6.85,5.553-12.402,12.402-12.402h248.033
			c6.85,0,12.402,5.553,12.402,12.402S589.728,582.216,582.88,582.216z"/>
		<path fill="#FFFFFF" d="M582.88,507.808H334.845c-6.85,0-12.402-5.555-12.402-12.402c0-6.85,5.553-12.402,12.402-12.402h248.033
			c6.85,0,12.402,5.553,12.402,12.402S589.728,507.808,582.88,507.808z"/>
		<path fill="#FFFFFF" d="M582.88,433.398H334.845c-6.85,0-12.402-5.553-12.402-12.403c0-6.849,5.553-12.402,12.402-12.402h248.033
			c6.85,0,12.402,5.553,12.402,12.402C595.281,427.845,589.728,433.398,582.88,433.398z"/>
		<path fill="#FFFFFF" d="M582.88,358.987H334.845c-6.85,0-12.402-5.553-12.402-12.402s5.553-12.402,12.402-12.402h248.033
			c6.85,0,12.402,5.553,12.402,12.402S589.728,358.987,582.88,358.987z"/>
		<path fill="#FFFFFF" d="M582.88,284.577H334.845c-6.85,0-12.402-5.553-12.402-12.402c0-6.849,5.553-12.402,12.402-12.402h248.033
			c6.85,0,12.402,5.553,12.402,12.402C595.281,279.025,589.728,284.577,582.88,284.577z"/>
	</g>
</g>
</svg>
