<?xml version="1.0" encoding="utf-8"?>
<!-- Generator: Adobe Illustrator 16.0.3, SVG Export Plug-In . SVG Version: 6.00 Build 0)  -->
<!DOCTYPE svg PUBLIC "-//W3C//DTD SVG 1.0//EN" "http://www.w3.org/TR/2001/REC-SVG-20010904/DTD/svg10.dtd">
<svg version="1.0" id="Capa_1" xmlns="http://www.w3.org/2000/svg" xmlns:xlink="http://www.w3.org/1999/xlink" x="0px" y="0px"
	 width="447.816px" height="458.085px" viewBox="0 0 447.816 458.085" enable-background="new 0 0 447.816 458.085"
	 xml:space="preserve">
<g>
	<g>
		<g>
			<defs>
				<polygon id="SVGID_1_" points="118.259,179.855 122.211,172.279 124.847,166.68 128.14,160.42 131.105,155.81 133.41,154.162 
					135.716,152.184 138.021,152.184 139.998,152.184 141.645,152.184 142.963,145.267 142.963,139.668 142.963,134.728 
					142.963,129.128 142.963,123.857 140.658,119.247 139.01,115.292 138.021,112.658 133.41,107.716 130.612,104.424 
					130.612,99.812 130.612,96.518 130.612,92.565 130.612,90.26 128.798,86.636 127.48,83.342 126.164,81.036 125.176,79.39 
					125.176,76.095 125.505,72.802 125.505,70.166 125.176,67.201 125.176,62.919 124.519,57.978 124.188,53.038 124.188,47.768 
					126.494,41.509 129.129,35.25 132.752,27.674 135.716,23.722 137.691,20.757 140.658,18.451 142.963,16.475 147.245,14.828 
					150.539,12.851 152.846,10.217 152.846,8.569 156.469,6.923 159.762,4.946 162.398,4.946 166.68,3.3 171.291,1.652 
					177.879,1.652 183.809,1.652 191.055,2.97 199.619,4.616 205.549,6.593 209.83,7.582 213.123,8.24 217.735,10.217 
					220.369,11.206 223.666,13.84 226.629,15.817 229.923,17.792 233.875,20.099 233.875,24.051 237.169,28.004 237.169,31.627 
					235.523,34.262 233.546,36.898 234.863,38.544 235.193,41.509 235.523,45.792 235.523,48.756 235.523,51.39 237.169,56.332 
					238.816,61.602 240.133,67.531 240.793,72.473 240.793,75.272 242.275,77.083 243.428,78.896 244.251,81.201 244.251,82.354 
					244.251,83.672 253.803,87.459 252.814,92.236 251.496,92.729 251.004,94.213 250.18,96.188 249.355,98.988 247.875,102.776 
					246.229,106.399 244.251,108.87 242.109,110.353 242.109,113.482 241.616,116.775 240.464,119.576 239.145,122.705 
					237.169,126.329 236.346,128.47 235.521,129.622 234.04,131.928 232.889,134.728 232.063,136.21 231.24,138.186 229.594,141.48 
					228.605,143.95 228.605,145.104 228.275,148.563 227.781,151.033 226.793,154.656 226.465,157.621 225.971,159.597 
					224.652,162.396 223.502,165.197 221.853,167.502 219.877,169.643 219.549,170.796 220.205,173.266 221.029,175.408 
					222.181,176.56 224.49,177.219 225.805,178.207 227.781,179.196 230.252,179.855 232.723,181.008 236.016,182.159 
					240.133,183.809 242.605,184.63 246.721,186.278 250.016,188.089 253.803,189.902 255.284,192.041 259.236,193.36 
					262.531,195.667 265.992,197.148 271.098,199.289 274.391,200.607 276.201,201.595 278.18,201.595 279.99,203.572 
					279.99,205.38 282.132,207.03 283.118,208.183 285.098,210.159 286.579,211.806 286.579,212.794 288.225,214.276 
					289.214,215.593 290.036,216.912 290.697,219.052 290.697,220.041 290.697,221.852 290.697,223.17 313.754,177.055 
					315.235,174.585 317.046,172.444 318.364,170.961 320.999,170.138 424.76,178.043 426.405,179.689 426.405,182.489 
					425.417,185.125 393.797,244.416 395.444,244.416 396.925,245.732 398.903,247.05 400.878,248.865 402.031,251.169 
					402.031,253.639 401.702,256.438 400.713,258.744 399.89,260.393 398.735,262.039 398.243,264.18 398.408,265.992 
					399.561,267.804 401.537,269.121 402.854,271.261 404.008,273.074 404.172,274.72 403.515,277.356 402.688,279.662 
					402.361,280.649 402.854,281.968 402.854,284.272 402.688,286.414 401.372,288.228 400.22,289.708 399.067,291.189 
					397.911,293.167 396.104,294.154 395.773,295.31 400.713,298.105 405.326,302.059 408.619,307.99 411.254,313.917 
					414.054,319.684 417.513,328.082 420.806,339.283 430.36,367.278 433.984,380.623 435.959,384.902 437.44,389.515 
					438.922,395.444 440.405,401.703 441.89,407.137 441.89,411.914 443.863,420.808 444.522,430.195 445.841,439.912 
					445.841,446.83 447.816,455.558 447.816,456.433 361.517,455.722 360.692,450.617 358.88,443.535 358.221,440.078 
					356.577,441.722 354.762,444.029 352.786,447.984 350.152,451.769 348.671,453.912 348.671,456.433 56.498,456.433 
					57.652,450.947 57.321,447.652 57.321,443.205 56.498,440.242 57.486,437.441 57.652,434.148 58.969,430.689 58.805,427.726 
					58.805,424.923 57.981,424.265 56.498,425.748 53.699,426.738 48.922,429.535 43.651,432.337 38.711,432.83 34.759,433.982 
					30.971,433.818 27.182,431.183 23.229,426.9 18.781,423.771 15.323,417.677 14.336,414.712 13.512,409.937 11.865,403.35 
					10.877,399.726 9.395,394.949 9.395,390.337 9.395,386.714 7.912,384.41 7.912,380.951 9.56,373.869 11.371,369.257 
					12.688,364.646 14.665,361.679 16.313,358.057 16.313,355.257 17.795,349.987 20.76,346.033 20.1,343.729 16.971,334.339 
					15.323,327.423 14.828,320.835 15.16,314.906 16.807,308.154 19.277,302.059 21.253,293.167 21.418,289.048 22.734,284.933 
					25.701,276.86 28.5,269.778 31.301,263.686 33.936,255.781 34.922,251.828 35.088,250.18 35.583,248.699 38.547,243.759 
					41.347,238.649 44.312,231.571 47.771,227.946 49.086,223.665 53.369,218.56 59.298,214.276 65.393,210.983 70.332,207.194 
					75.438,203.901 80.381,201.264 86.473,197.808 92.732,194.512 97.507,191.219 100.638,188.75 106.895,186.113 112.167,183.148 
					116.119,181.008 				"/>
			</defs>
			<clipPath id="SVGID_2_">
				<use xlink:href="#SVGID_1_"  overflow="visible"/>
			</clipPath>
			<g transform="matrix(1 0 0 1 1.642416e-007 -6.168591e-009)" clip-path="url(#SVGID_2_)">
				
					<image overflow="visible" enable-background="new    " width="3794" height="3881" xlink:href="63555258.jpeg"  transform="matrix(0.118 0 0 0.118 2.9121 -2.6519)">
				</image>
			</g>
		</g>
	</g>
	<polyline fill="#FFFFFF" points="242.25,107.191 241.771,105.351 241.371,103.19 241.371,102.15 240.973,101.03 240.973,100.148 
		240.33,98.309 240.33,96.949 239.93,95.828 239.93,94.468 239.93,93.027 239.93,91.987 240.568,90.307 240.729,89.427 
		241.531,87.906 248.971,90.147 248.971,91.267 248.971,92.628 248.65,93.829 248.092,95.828 247.532,97.548 246.891,99.749 
		246.412,101.349 245.452,102.869 244.811,104.55 243.688,105.91 243.131,106.87 242.57,107.191 	"/>
	<polyline fill="#FFFFFF" points="334.393,314.455 336.073,313.253 337.595,312.294 339.196,311.013 341.034,309.893 
		342.315,308.453 343.916,307.253 345.676,305.173 346.717,303.492 347.997,301.811 348.718,300.449 349.277,299.65 349.277,296.05 
		349.277,293.33 349.277,290.927 349.277,289.408 349.277,287.968 349.277,286.848 349.277,285.566 349.277,284.367 
		349.277,283.888 317.27,284.287 	"/>
</g>
</svg>
