<?xml version="1.0" encoding="utf-8"?>
<!-- Generator: Adobe Illustrator 22.0.0, SVG Export Plug-In . SVG Version: 6.00 Build 0)  -->
<svg version="1.1" id="Capa_1" xmlns="http://www.w3.org/2000/svg" xmlns:xlink="http://www.w3.org/1999/xlink" x="0px" y="0px"
	 viewBox="0 0 1920 566" style="enable-background:new 0 0 1920 566;" xml:space="preserve">
<style type="text/css">
	.st0{fill:#F19300;}
	.st1{fill:#FFFFFF;}
</style>
<path class="st0" d="M1869.3,347.5c0,0,21.3-25.4,8.8-54.9c-17.9-41-51.2-40.6-51.2-40.6h-72.9c0,0-22.1,0.4-45.8,17.2
	c-17.7-17.2-37.7-17.5-37.7-17.5h-68.2c-28.7,1.7-43.9,14.8-43.9,14.8s-16.8-16.5-44.4-14.3c-57.5,9.2-55.9,59.8-55.9,59.8
	s0,61.8,0,62.2c0,0.3,0.1,1.5-0.6,1.5s-0.5-1.5-0.5-1.5v-62.9c-4.6-53.5-52.7-58.5-52.7-58.5s-5-52.7-60.6-54
	c-54.4,2.6-60.8,53.6-60.8,53.6c-59.4,1.1-93.2,37.3-108.8,65.2c-9.6-46.3-50.6-81-99.7-81h0c-28.4,0-54.1,11.6-72.6,30.4
	c-11.8-17.9-32.1-29.8-55.2-29.8c-36.5,0-66.1,29.6-66.1,66.1c0,1.3-0.1,2.6,0,3.9v68.8c0,2.1,0.2,3.8-1.7,3.8
	c-1.8,0-1.8-1.7-1.8-3.8v-71.3c0-0.5,0-1,0-1.5c0-36.8-30-66.7-66.8-66.7c-26.3,0-49.1,15.2-59.9,37.4c-21-14.8-46.7-23.6-74.4-23.6
	c-13.7,0-26.8,2.1-39.2,6.1l0.8-6c0-23.4-19-42.3-42.3-42.3h-98.8c-23.4,0-42.3,19-42.3,42.3v216.5c0,14.8,8.7,27.8,22.4,35.3
	c12.1,6.7,26.8,6.4,38.8-0.5l0,0c0.5-0.3,1-0.6,1.4-0.9c10.4-6.6,18.5-18.4,18.5-30.8v-15.5v-26v-23.1l22.5,26
	c20,45.4,65.4,77.2,118.2,77.2c45.5,0,85.4-23.5,108.5-59c16,35.2,51.5,59.7,92.7,59.7h0c28.4,0,54.1-11.6,72.6-30.4
	c11.8,17.9,32.1,29.8,55.2,29.8c36.5,0,66.1-29.6,66.1-66.1c0-1.3,0-2.6-0.1-3.9v-47.9c0-2.1-0.3-3.8,1.8-3.8c2.1,0,1.8,1.7,1.8,3.8
	v50.3l0,0.4c0,0.5,0,1,0,1.5c0,36.8,30,66.3,66.9,66.3c28,0,52-17.3,61.9-41.8c34.7,29.9,72.9,29.9,72.9,29.9
	c26.2,0.9,61.4-5.7,93.2-37.7c27.8,29,60.9,38.6,88.2,37.6c25.9-1,52-6.8,75.8-25.7c4.7,7.5,23.3,23.6,39.3,24.8s37,2,73.4,0.7
	c33.8-1.2,50.4-15.2,50.4-15.2s12.2,10.6,26.5,13.8c18.7,3.3,59.8,2.3,84.4,1c3.6-0.2,7.1-0.6,10.6-1.4
	c51.8-11.6,68.4-51.4,71.4-79.4C1894.3,376.1,1869.3,347.5,1869.3,347.5z"/>
<g>
	<path class="st1" d="M1861.1,347.5c0,0,23.7-23.9,10-54.4c-16.8-35-46.7-34.4-46.7-34.4h-66.9c0,0-27.8,0.7-49.7,19.6
		c-18.8-22.3-41.4-19.6-41.4-19.6h-66.9c-22.2,1.8-41.9,16.3-41.9,16.3s-15.6-18.8-43.9-15.6c-50.2,8.1-49.2,54.5-49.2,54.5
		s0.3,62.5,0.3,62.9s0.6,5.7-7.2,6c-3.7,0.1-5.6-1.7-6.5-3.4c-0.6-1.1-0.9-2.4-0.8-3.6c0.1-4.1,0.3-21.4,0.3-62.8
		c-4.5-51.1-52.2-54.6-52.2-54.6S1396,207,1342,206c-50.3,4.4-52.7,53.2-52.7,53.2c-76.4-1.6-110.8,56.6-117,79
		c-0.3,1.1-0.6,2.2-0.9,3.4v-5c0-52.6-44.5-93.5-97.4-94c-28.1,0.3-55,12.7-74.1,32.1c-10.6-19.1-31-32-54.4-32
		c-34.4,0-60.5,27-60.5,61.4c0,1.5-0.1,3.1,0,4.6l-0.1,1.7l0.1,66.1c0,2.9-3.2,6-6,6s-6.4-2.3-6.4-5.2l0.1-62.8v-4.5
		c0.1-1.5,0-2.9,0-4.4c0-35-27.2-63.4-62.2-63.4c-26.9,0-49.9,16.8-59.1,40.4c-20.7-15.9-46.6-26.6-74.8-26.6
		c-16.8,0-32.7,3.4-47.3,9.4v-15c0-19.7-16-35.7-35.7-35.7h-96.6c-19.7,0-35.7,16-35.7,35.7V465c0,19.2,15.5,34.7,34.7,34.7
		c1.4,0.1,2.8,0,4.2-0.3c2.5-0.5,5.1-1.3,7.2-2.1c3.8-1.5,6.8-3.5,10.2-6.5c1.8-1.6,3.4-3.4,4.7-5.3c3-4.2,5.2-8.9,5.9-14
		c0.3-2.1,0.5-5.6,0.3-7.7v-5v-16.3v-53.7l32.6,34.7l0.7,0.5c17.9,45.9,62.5,78.4,114.8,78.4c49.3,0,90.7-28.8,110.3-70.7
		c9.4,41.4,46.8,71.4,91.1,71.4h1.8c28,0,53-13.8,70.9-33.4c10.7,19.1,31,32.9,54.4,32.9c34.4,0,61.3-26.5,61.3-60.9
		c0-1.4,0.1-2.8,0-4.1v-49.5c0-2.9,3.3-5.3,6.2-5.3c3.7,0,6.5,1.6,6.5,5.4v49.6c-0.1,1.3,0,2.6,0,4c0,35,27.5,62.2,62.6,62.2
		c29.8,0,53.2-20,59.4-47.7c33.1,32.8,74.4,34.6,74.4,34.6c25.7,0.9,62.7-5.8,94.1-41.1c29.9,34.3,62.3,41,87.8,41.4
		c32.7,0.5,54.6-11.5,78-29.5c8.7,16.1,26,28.5,41.8,29c16.6,0.5,34.6,1.9,70.2,0c33.1-1.8,50.1-17.4,50.1-17.4
		c4,3.9,8.5,7.4,13.4,10.3c6.4,3.8,13.6,6.1,21.1,6.8c19.9,1.9,49.9,1.1,72,0.1c2.7-0.1,5.3-0.4,8-0.8c54.2-8.2,69.3-48.8,71.2-77.1
		C1887.7,374.3,1861.1,347.5,1861.1,347.5z"/>
	<path class="st1" d="M1073.8,241.7c0.3,0,0.7,0,1,0c0.3,0,0.6,0,0.9,0H1073.8z"/>
</g>
<path class="st0" d="M230.7,22.3c0,0,72.7-4.2,130.2,40.3s79.5,97.3,83.2,152.2c5.2,51.8-30.9,108.3-57.5,153.2
	C359.8,413.7,277,511.2,248.3,539.4c-1.9,1.9-4.2,3.3-6.8,4.1c-2.7,0.7-5.6,0.6-8.1-0.5c-2-0.9-3.9-2.2-5.3-3.8
	c-10.8-12-75.7-84.1-100.6-118.7C94.1,374.7,64,328,49.2,293C30.5,254.1,26.5,214.7,39,171.8c6.9-23.3,17.9-45.2,32.6-64.6
	c17.9-24,48.7-56.4,95.1-72.8C209.8,21.2,230.7,22.3,230.7,22.3z"/>
<path class="st1" d="M230.8,26.3c0,0,71.2-4.1,127.5,39.6s77.8,95.6,81.4,149.6c5.1,50.9-30.2,106.4-56.3,150.6
	C357.2,411.1,276,507,248,534.7c-1.6,1.6-3.6,2.9-5.7,3.7c-3.2,1.1-7.5,2.1-12.6-2.3c0,0-73.4-81.2-100-118.4
	c-32.6-44.9-62-90.8-76.5-125.2c-18.3-38.3-22.2-77-9.9-119.2c6.7-22.9,17.5-44.4,31.9-63.5c17.6-23.6,47.6-55.4,93-71.6
	C210.4,25.2,230.8,26.3,230.8,26.3z"/>
<path class="st0" d="M231.6,52.7c0,0,62.2-3.7,111.4,35.1s68,84.9,71.1,132.8c4.5,45.2-26.4,94.5-49.2,133.8
	c-23.3,40.6-96.2,128-119.5,150.8c0,0-7.3,6.1-14.8,0c0,0-64.1-72.1-87.4-105.1c-28.5-39.8-54.2-80.6-66.9-111.2
	c-20.6-43.8-20.3-88.3,4.2-139.3c7.9-13,37.2-65.2,96.2-86.5C213.8,51.8,231.6,52.7,231.6,52.7z"/>
<path class="st1" d="M374.7,151.7c-19.3-33-61-75.8-130.3-79.1s-113.6,42.7-113.6,42.7l16.2,16.3c0,0,35.1-37.9,98.4-35.9
	c65.3,2.1,101.1,51.7,101.1,51.7L298.6,195c-19.2-33.2-61.6-44.6-94.8-25.5c-10.7,6.1-19.5,15-25.6,25.7l-14.1-14
	c0,0,21-35.1,63.8-39.7c44.5-4.8,69.4,22.2,69.4,22.2l19.7-19.7c0,0-33.6-33.3-88.1-28.7c-56.7,5.3-84.2,46.5-84.2,46.5l-43.6-43.6
	l-4.2,5.3c-2.1,2.7-4,5.4-5.9,8.2l-3.6,5.4l82.1,81.9c-0.6,3.7-0.9,7.5-0.9,11.2c0,38.7,31.2,70.1,69.7,70.1s69.6-31.4,69.6-70.1
	c0-3.7-0.3-7.4-0.9-11.1C319.9,206.8,351,175.9,374.7,151.7z M239,259.2c-17.2,0.1-31.3-13.8-31.4-31s13.8-31.3,31-31.4
	s31.3,13.8,31.4,31c0,0.1,0,0.1,0,0.2C270,245.2,256.2,259.1,239,259.2z"/>
<path class="st0" d="M679,293.1c-48.7,0-88.1,39.7-88.1,88.6s39.5,88.6,88.1,88.6s88.1-39.7,88.1-88.6S727.7,293.1,679,293.1z
	 M679.3,433.9c-29.2,0-52.9-23.7-52.9-52.9c0-29.2,23.7-52.9,52.9-52.9c29.2,0,52.9,23.7,52.9,52.9c0,0,0,0,0,0
	C732.2,410.2,708.5,433.8,679.3,433.9L679.3,433.9z"/>
<path class="st0" d="M1347.6,235.3c-9.5,0-17.2,7.7-17.2,17.2v52.9c-14.6-10.7-32.2-16.5-50.3-16.5c-46.8,0-84.7,37.7-84.7,84.2
	s37.9,84.2,84.7,84.2c46.4,0,84-37.1,84.6-83c0-0.2,0-0.4,0-0.6V252.6C1364.8,243.1,1357.1,235.4,1347.6,235.3z M1279.8,423.9
	c-27.8-0.1-50.2-22.7-50.1-50.4c0.1-27.8,22.7-50.2,50.4-50.1c27.7,0.1,50.1,22.6,50.1,50.3C1330.3,401.5,1307.7,424,1279.8,423.9
	C1279.9,424,1279.8,424,1279.8,423.9L1279.8,423.9z"/>
<path class="st0" d="M600.1,231.1H496.2c-9.9,0-18,8.1-18,18v196.2c0.2,10.2,8.7,18.4,19,18.1c9.9-0.2,17.9-8.2,18.1-18.1v-71.9h0.5
	h58.7c9.8,0,17.7-7.9,17.7-17.7v-1.6c0-9.9-8-17.8-17.9-17.9h-58.5h-0.5V268h84.8c10.2,0,18.4-8.3,18.5-18.5l0,0
	C618.5,239.4,610.3,231.1,600.1,231.1z"/>
<path class="st0" d="M967.5,369.5c0-0.2,0-0.6,0-0.8v-63.1c0-10-8.1-18-18.1-18.1c-9.9,0-18.5,8.1-18.5,18.1V380
	c0,0,1.7,17.7-14.7,33.8c-15.9,15.6-36.8,14.7-36.8,14.7s-33.3,1-48.5-32.3c-4.6-8.1-3.9-27.4-3.9-27.4v-63.1
	c0-10-8.1-18.1-18.1-18.1s-18.1,8.1-18.1,18.1v62.9c0,0-1,41.8,21.4,65.6c31,33,58,30.7,79.8,28.7c25.3-3.2,50.2-19.4,63.4-42.4
	C968.4,397.8,967.4,377.1,967.5,369.5z"/>
<path class="st0" d="M1544.6,367.1V306c0-9.6-7.8-17.3-17.3-17.3c-9.5,0-17.7,7.8-17.7,17.3v71.1c0,0,1.7,17-14.1,32.4
	c-15.3,14.9-35.3,14-35.3,14s-31.9,1-46.5-30.9c-4.4-7.8-3.7-26.2-3.7-26.2V306c0-9.6-7.8-17.3-17.3-17.3c-9.6,0-17.3,7.8-17.3,17.3
	v60.2c0,0-0.9,40,20.5,62.9c29.7,31.6,55.6,29.4,76.5,27.5c24.3-3,48.1-18.5,60.7-40.6C1545.5,394.2,1544.5,374.5,1544.6,367.1z"/>
<path class="st0" d="M979,380.8c0,0.2,0,0.6,0,0.8v63.1c0,9.9,8.1,18,18,18.1c9.9,0,18.5-8.1,18.5-18.1v-74.3
	c0,0-1.7-17.7,14.7-33.8c16-15.6,36.8-14.6,36.8-14.6s33.3-1,48.5,32.3c4.6,8.1,3.9,27.4,3.9,27.4v63.1c0,10,8.1,18.1,18.1,18.1
	c10,0,18.1-8.1,18.1-18.1v-62.9c0,0,1-41.8-21.4-65.6c-31-33-58-30.7-79.8-28.7c-25.3,3.2-50.2,19.4-63.4,42.4
	C978,352.5,979,373.2,979,380.8z"/>
<path class="st0" d="M1679.7,290.3h-69.9c0,0-30.5,1.2-42.6,28.7c-13.5,30.6,2.8,51.5,10.4,59.8s20.1,13,29,13h45.8
	c0,0,16.1-0.3,16.1,16.1c0,12.7-8.6,16.9-12.9,16.9h-68.5c0,0-15,0.8-16.3,18.4c1.2,18.4,17.9,16.1,17.9,16.1h66.5
	c0,0,27.3,0,41.7-25c13.7-25.1,3.8-53.8-14-67.3c-13.6-10.1-27.4-9-27.4-9h-44.2c0,0-10.8,0.4-14.5-12c-1-3.3-1.1-6.8-0.2-10.1
	c0.9-3.7,3.2-7,6.3-9.2c2.7-1.8,5.9-2.7,9.1-2.6h63.9c4.7,0.1,9.3-1.5,12.9-4.5c3.6-2.9,5.7-7.3,5.7-12
	C1694.4,294.9,1683.2,290.4,1679.7,290.3z"/>
<path class="st0" d="M1828.8,289.8h-69.9c0,0-30.5,1.2-42.6,28.7c-13.5,30.6,2.8,51.5,10.4,59.8s20.1,13,29,13h45.8
	c0,0,16.1-0.3,16.1,16.1c0,12.7-8.6,16.9-12.9,16.9h-68.5c0,0-15,0.8-16.3,18.4c1.2,18.4,17.9,16.1,17.9,16.1h66.5
	c0,0,27.3,0,41.7-25c13.6-25.1,3.8-53.8-13.9-67.3c-13.7-10.1-27.4-9-27.4-9h-44.2c0,0-10.8,0.4-14.5-12c-1-3.3-1.1-6.8-0.2-10.1
	c0.9-3.7,3.2-7,6.3-9.2c2.7-1.8,5.9-2.7,9.1-2.6h63.9c4.7,0.1,9.3-1.5,12.9-4.5c3.6-2.9,5.7-7.3,5.7-12
	C1843.5,294.4,1832.3,290,1828.8,289.8z"/>
</svg>
