<?xml version="1.0" encoding="utf-8"?>
<!-- Generator: Adobe Illustrator 16.0.3, SVG Export Plug-In . SVG Version: 6.00 Build 0)  -->
<!DOCTYPE svg PUBLIC "-//W3C//DTD SVG 1.0//EN" "http://www.w3.org/TR/2001/REC-SVG-20010904/DTD/svg10.dtd">
<svg version="1.0" id="Capa_1" xmlns="http://www.w3.org/2000/svg" xmlns:xlink="http://www.w3.org/1999/xlink" x="0px" y="0px"
	 width="504px" height="484.901px" viewBox="27.14 139.542 504 484.901" enable-background="new 27.14 139.542 504 484.901"
	 xml:space="preserve">
<g>
	<g>
		<g>
			<path fill="#FCFCFC" d="M307.859,592.437c98.266,0,177.924-79.66,177.924-177.923c0-98.264-79.658-177.923-177.924-177.923
				c-98.262,0-177.921,79.659-177.921,177.923C130.049,512.731,209.642,592.326,307.859,592.437z M170.375,406.427h-23.85
				c4.215-82.829,70.42-149.033,153.248-153.249v23.85c0,4.466,3.621,8.087,8.086,8.087c4.469,0,8.089-3.621,8.089-8.087v-23.85
				c82.829,4.215,149.033,70.42,153.247,153.249h-31.937c-4.466,0-8.087,3.621-8.087,8.087s3.621,8.087,8.087,8.087h31.937
				c-4.214,82.828-70.418,149.032-153.247,153.248V552c0-4.466-3.62-8.087-8.089-8.087c-4.465,0-8.086,3.621-8.086,8.087v23.85
				c-82.827-4.216-149.033-70.42-153.248-153.248h23.85c4.466,0,8.087-3.621,8.087-8.087S174.841,406.427,170.375,406.427z"/>
			<path fill="#FCFCFC" d="M489.948,309.517c-2.41-4.177-4.966-8.27-7.658-12.271l19.968-19.968c3.157-3.158,3.157-8.277,0-11.436
				l-45.694-45.694c-3.158-3.157-8.276-3.157-11.436,0l-20,19.935c-32.352-21.842-70.172-34.188-109.18-35.641v-48.727h56.611
				c4.466,0,8.089-3.621,8.089-8.087c0-4.466-3.623-8.087-8.089-8.087H243.161c-4.466,0-8.088,3.622-8.088,8.087
				c0,4.466,3.622,8.087,8.088,8.087h56.612v48.799c-72.127,2.754-137.789,42.352-173.879,104.861H81.413
				c-4.466,0-8.087,3.621-8.087,8.087s3.621,8.087,8.087,8.087h48.524c0.21,0,0.388-0.105,0.599-0.121
				c2.915,0.037,5.618-1.511,7.06-4.044c51.455-94.04,169.401-128.563,263.442-77.109c94.041,51.454,128.563,169.403,77.109,263.444
				c-51.455,94.039-169.401,128.563-263.443,77.108c-32.543-17.807-59.303-44.565-77.109-77.108
				c-1.428-2.543-4.127-4.108-7.044-4.086c-0.21,0-0.396-0.121-0.615-0.121H81.412c-4.466,0-8.087,3.622-8.087,8.089
				c0,4.466,3.621,8.086,8.087,8.086h44.48c58.038,100.531,186.584,134.979,287.114,76.941
				C513.539,538.593,547.986,410.047,489.948,309.517z M438.343,249.804l12.502-12.501l34.258,34.258l-12.52,12.52
				C462.514,271.387,451.027,259.887,438.343,249.804z"/>
			<path fill="#FCFCFC" d="M113.763,414.514c0-4.466-3.621-8.087-8.087-8.087H40.976c-4.466,0-8.087,3.621-8.087,8.087
				s3.621,8.087,8.087,8.087h64.699C110.142,422.601,113.763,418.98,113.763,414.514z"/>
			<path fill="#FCFCFC" d="M57.151,374.077h56.612c4.466,0,8.087-3.621,8.087-8.087s-3.621-8.087-8.087-8.087H57.151
				c-4.466,0-8.087,3.621-8.087,8.087S52.684,374.077,57.151,374.077z"/>
			<path fill="#FCFCFC" d="M121.85,463.038c0-4.466-3.621-8.087-8.087-8.087H57.151c-4.466,0-8.087,3.621-8.087,8.087
				c0,4.467,3.621,8.087,8.087,8.087h56.612C118.229,471.125,121.85,467.504,121.85,463.038z"/>
			<path fill="#FCFCFC" d="M285.968,468.755c3.157,3.157,8.276,3.157,11.435,0l112.416-112.415
				c3.103-3.212,3.014-8.332-0.199-11.435c-3.134-3.027-8.103-3.027-11.236,0L291.686,451.603l-48.121-48.12
				c-3.212-3.104-8.333-3.014-11.436,0.197c-3.027,3.135-3.027,8.103,0,11.238L285.968,468.755z"/>
		</g>
	</g>
</g>
</svg>
