<?xml version="1.0" encoding="utf-8"?>
<!-- Generator: Adobe Illustrator 16.0.3, SVG Export Plug-In . SVG Version: 6.00 Build 0)  -->
<!DOCTYPE svg PUBLIC "-//W3C//DTD SVG 1.0//EN" "http://www.w3.org/TR/2001/REC-SVG-20010904/DTD/svg10.dtd">
<svg version="1.0" id="_x31_px" xmlns="http://www.w3.org/2000/svg" xmlns:xlink="http://www.w3.org/1999/xlink" x="0px" y="0px"
	 width="512px" height="512px" viewBox="0 0 512 512" enable-background="new 0 0 512 512" xml:space="preserve">
<path fill="#FFFFFF" d="M322.773,320H178.091c-33.515,0-60.757-27.755-60.757-61.867c0-31.338,22.997-57.301,52.714-61.312
	C179.563,157.013,215.083,128,256,128c32.213,0,61.952,18.027,77.376,46.4c34.837,5.142,61.291,35.755,61.291,72.341
	C394.667,287.146,362.411,320,322.773,320z M256,149.333c-33.237,0-61.803,25.387-66.453,59.072
	c-0.726,5.27-5.248,9.195-10.56,9.195c-22.635,0-40.32,18.197-40.32,40.511c0,22.357,17.686,40.534,39.424,40.534h144.704
	c27.883,0,50.56-23.296,50.56-51.926c0-27.477-20.864-50.197-47.488-51.712c-3.968-0.234-7.466-2.624-9.109-6.208
	C305.792,164.843,281.963,149.333,256,149.333z"/>
<path fill="#FFFFFF" d="M256,469.333c-5.888,0-10.667-4.778-10.667-10.666c0-5.889,4.778-10.667,10.667-10.667
	c117.632,0,213.333-95.701,213.333-213.333c0-5.888,4.779-10.667,10.667-10.667s10.667,4.779,10.667,10.667
	C490.667,364.053,385.387,469.333,256,469.333z"/>
<path fill="#FFFFFF" d="M467.413,171.733c-4.416,0-8.555-2.773-10.091-7.168C427.669,78.891,346.752,21.333,256,21.333
	c-48.555,0-94.037,15.936-131.563,46.059c-4.608,3.669-11.328,2.965-14.998-1.622c-3.69-4.608-2.944-11.307,1.643-14.997
	C152.427,17.557,202.539,0,256,0c99.84,0,188.864,63.339,221.504,157.568c1.92,5.589-1.024,11.648-6.592,13.589
	C469.76,171.542,468.565,171.733,467.413,171.733z"/>
<path fill="#FFFFFF" d="M181.333,456.32c-1.173,0-2.368-0.192-3.542-0.598C84.224,422.912,21.333,334.08,21.333,234.667
	c0-47.36,14.08-92.821,40.704-131.477c3.328-4.886,9.963-6.059,14.827-2.752c4.864,3.349,6.08,9.984,2.731,14.827
	c-24.149,35.115-36.928,76.395-36.928,119.402c0,90.369,57.152,171.115,142.208,200.917c5.547,1.941,8.469,8.021,6.528,13.589
	C189.867,453.568,185.75,456.32,181.333,456.32L181.333,456.32z"/>
<path fill="#FFFFFF" d="M288,512c-2.73,0-5.461-1.045-7.552-3.114l-42.667-42.667c-4.16-4.16-4.16-10.923,0-15.083l42.667-42.667
	c4.159-4.159,10.923-4.159,15.083,0c4.159,4.16,4.159,10.924,0,15.083l-35.115,35.115l35.115,35.114
	c4.159,4.16,4.159,10.923,0,15.083C293.461,510.955,290.73,512,288,512z"/>
<path fill="#FFFFFF" d="M89.045,170.667c-4.715,0-9.024-3.136-10.304-7.893l-13.803-51.52l-51.52,13.803
	c-5.696,1.429-11.541-1.856-13.056-7.552c-1.515-5.696,1.856-11.52,7.552-13.056l61.824-16.555c5.674-1.43,11.541,1.856,13.056,7.53
	l16.555,61.803c1.536,5.717-1.856,11.542-7.53,13.078C90.88,170.539,89.963,170.667,89.045,170.667L89.045,170.667z"/>
<path fill="#FFFFFF" d="M469.333,183.424c-1.813,0-3.647-0.448-5.333-1.429l-55.424-32c-5.099-2.944-6.849-9.451-3.904-14.571
	s9.472-6.869,14.571-3.904l46.187,26.667L492.096,112c2.944-5.099,9.473-6.869,14.571-3.904c5.099,2.944,6.848,9.451,3.903,14.57
	l-32,55.424C476.587,181.504,473.003,183.424,469.333,183.424L469.333,183.424z"/>
</svg>
